<svg width="623" height="516" viewBox="0 0 623 516" fill="none" xmlns="http://www.w3.org/2000/svg">
<path fill-rule="evenodd" clip-rule="evenodd" d="M301.58 92.2654V92.2649V92.2645V92.2642V92.2636L301.58 92.2629C303.431 67.6683 305.278 43.1374 306.716 18.715H306.779C309.948 18.9339 310.31 19.0653 311.985 19.6729C312.497 19.8587 313.133 20.0892 314.009 20.3803C307.838 126.788 302.378 242.58 315.567 348.006C315.81 350.198 311.623 350.091 307.444 349.984C306.53 349.96 305.616 349.937 304.749 349.937C305.733 354.985 306.75 360.015 307.801 365.02L307.813 365.069C304.625 365.727 302.511 366.382 300.406 367.034C298.257 367.7 296.117 368.362 292.855 369.021C292.94 368.996 292.565 367.342 291.841 364.153L291.841 364.151L291.84 364.15C286.139 339.03 258.84 218.758 265.056 49.6233C268.698 48.7637 269.896 49.0232 272.614 49.6118C273.236 49.7465 273.938 49.8985 274.767 50.0583C274.814 50.1337 274.879 52.2457 274.999 56.1403V56.1405V56.1406V56.1408V56.141V56.1411V56.1412V56.1414V56.1415V56.1417V56.1419V56.1421V56.1423V56.1425V56.1427V56.1429V56.1431V56.1434V56.1437V56.1441V56.1443C275.775 81.4115 278.858 181.659 294.229 287.578C291.773 222.58 296.694 157.201 301.58 92.2654ZM346.482 372.327C351.665 372.196 356.784 371.153 361.602 369.245C361.648 369.372 361.548 368.416 361.343 366.452L361.342 366.444L361.342 366.443C359.065 344.629 343.844 198.792 369.855 28.9307C368.132 28.306 366.708 27.6813 365.284 27.0567L365.283 27.0565C363.875 26.4384 362.466 25.8204 360.767 25.2023C360.78 25.2538 360.661 25.9416 360.426 27.3094C359.24 34.1925 355.089 58.2956 349.723 105.189C343.789 161.176 337.107 246.867 346.482 372.389V372.327ZM409.776 339.66C407.17 340.217 404.565 340.773 402.502 341.332C377.055 179.224 386.874 94.3247 389.851 68.5825C390.494 63.0208 390.818 60.2205 390.398 59.9995C392.623 60.2878 393.807 60.5761 394.991 60.8644C396.191 61.1564 397.391 61.4485 399.672 61.7406C391.239 174.504 408.154 278.167 414.876 319.362L414.877 319.363C417.017 332.481 418.124 339.265 417.049 337.989C414.986 338.548 412.381 339.104 409.776 339.66ZM390.311 59.9882L390.398 59.9995C390.372 59.9857 390.343 59.9819 390.311 59.9882ZM171.228 263.334L175.653 263.198H177.772C171.639 196.871 173.372 160.342 174.027 146.549V146.549C174.235 142.147 174.334 140.061 174.033 140.061L169.296 139.925C166.366 181.04 167.013 222.33 171.228 263.334ZM193.117 185.138L193.08 185.133C196.475 154.639 200.951 131.477 205.073 114.546C200.986 157.626 196.848 234.281 202.08 344.141V344.041C203.556 343.689 206.14 343.337 208.712 342.986L208.713 342.986C211.223 342.644 213.722 342.303 215.169 341.966C215.202 342.027 215.113 340.939 214.937 338.806L214.937 338.804C213.46 320.885 205.909 229.285 214.321 126.097C214.614 189.776 219.222 253.385 228.121 316.489L237.27 314.363L239.439 314.426C236.826 292.646 234.683 272.461 232.927 253.814C235.694 172.065 240.759 134.543 241.695 127.609V127.609C241.786 126.933 241.838 126.547 241.845 126.44L239.202 126.13C235.52 148.807 232.743 193.085 230.89 230.842C224.179 150.004 225.141 102.043 225.559 81.2092V81.2091V81.209V81.2088V81.2087V81.2086V81.2085V81.2084V81.2083V81.2081V81.208V81.2079V81.2078V81.2077C225.728 72.7734 225.808 68.7853 225.254 68.8618L215.281 67.184C215.191 69.6066 215.107 72.0293 215.029 74.4521L210.37 73.2115C210.262 73.5406 209.657 76.7182 208.783 82.7353C198.467 115.852 191.547 149.932 188.131 184.454L193.08 185.133L193.08 185.138H193.117ZM479.801 251.615L475.164 251.465L473.007 251.453C478.992 182.941 476.194 152.727 475.764 148.09C475.731 147.734 475.712 147.529 475.712 147.468H479.041C483.907 170.831 480.828 231.03 479.989 247.433V247.434V247.435V247.435L479.989 247.436L479.988 247.453L479.988 247.454L479.987 247.471L479.986 247.488L479.985 247.505L479.985 247.512L479.984 247.516L479.984 247.531C479.85 250.142 479.775 251.615 479.801 251.615ZM445.222 294.615H449.983L452.078 294.69C452.871 182.856 460.608 133.663 461.875 125.602L461.876 125.601L461.876 125.599C461.983 124.921 462.043 124.534 462.05 124.427C461.228 124.343 460.284 124.299 459.335 124.256L459.335 124.256H459.334C458.326 124.209 457.314 124.163 456.441 124.067C449.152 161.903 446.261 260.222 445.459 287.503L445.459 287.508C445.326 292.045 445.25 294.615 445.222 294.615ZM322.311 357.861C323.944 358.768 330.787 358.669 332.67 357.762L334.889 356.817C326.226 175.17 340.669 63.4093 342.514 49.128C342.642 48.1392 342.709 47.6177 342.705 47.5727C341.745 47.2744 338.965 46.479 338.778 47.6597C313.605 204.757 321.147 337.141 322.201 355.651L322.201 355.652C322.283 357.096 322.326 357.846 322.311 357.861ZM381.372 343.457C380.688 343.798 379.941 343.994 379.177 344.033C378.413 344.071 377.65 343.951 376.935 343.681C376.942 343.67 376.894 343.197 376.801 342.279L376.8 342.272L376.8 342.269C375.609 330.543 367.1 246.754 372.011 126.503C372.011 125.844 373.581 126.13 374.105 126.304C374.109 126.331 374.092 126.7 374.06 127.395V127.396C373.558 138.317 369.36 229.733 383.529 342.811L381.372 343.457ZM257.702 353.81C259.839 354.137 262.02 354.018 264.109 353.462L268.435 352.53C250.119 154.199 251.363 70.7937 251.533 59.366C251.546 58.4891 251.553 58.036 251.544 57.9873C250.571 57.7512 247.63 57.0676 247.63 58.3104C246.151 228.846 255.762 332.648 257.453 350.909C257.629 352.814 257.719 353.789 257.702 353.81ZM431.555 225.853C432.225 144.197 439.191 106.452 441.579 93.5082L441.579 93.5077L441.58 93.5058C442.234 89.961 442.545 88.277 442.288 88.0609L451.753 90.6479C433.695 213.115 440.802 297.577 441.955 311.285C442.069 312.641 442.125 313.305 442.092 313.245L433.08 315.233C432.503 300.34 432.101 286.348 431.847 273.21L431.098 273.339L424.628 273.364C414.824 203.683 421.664 136.456 423.919 114.299L423.919 114.297C424.296 110.594 424.544 108.151 424.566 107.165C425.871 107.22 426.643 107.276 427.415 107.332L427.415 107.332C428.192 107.388 428.968 107.444 430.287 107.5C426.74 156.78 428.69 197.331 431.555 225.853ZM442.205 88.038L442.288 88.0609C442.265 88.0414 442.237 88.0338 442.205 88.038ZM73.2979 453.022C73.4912 452.957 73.6926 452.92 73.8963 452.91C74.2952 452.91 74.5819 453.171 74.7439 453.681L84.8535 482.613L93.3426 458.391C93.4229 458.181 93.4854 457.965 93.5296 457.745C93.5459 457.563 93.5459 457.38 93.5296 457.198C93.5268 456.927 93.442 456.663 93.2863 456.442C93.1305 456.22 92.9112 456.05 92.657 455.955C91.7695 455.595 90.832 455.373 89.8772 455.296C89.4409 455.296 89.2165 454.923 89.2165 454.277C89.2163 453.954 89.2582 453.632 89.3411 453.32C90.3758 453.407 91.4603 453.469 92.5947 453.531C93.729 453.594 94.7387 453.618 95.6238 453.618C96.5088 453.618 97.6058 453.618 98.7028 453.531C99.0776 453.502 99.4248 453.478 99.7454 453.456L99.7466 453.456L99.7485 453.456H99.7489H99.7495C100.365 453.413 100.882 453.377 101.308 453.32C101.293 453.481 101.293 453.644 101.308 453.805C101.348 453.959 101.369 454.118 101.37 454.277C101.37 454.923 101.134 455.271 100.66 455.358C99.721 455.451 98.801 455.681 97.9299 456.042C97.29 456.371 96.8061 456.938 96.5836 457.62L84.0433 492.99C83.8364 493.07 83.6168 493.112 83.395 493.114C82.9089 493.114 82.5474 492.754 82.3105 492.046L72.3381 463.946L62.1661 492.99C61.9801 493.08 61.7745 493.123 61.5678 493.114C61.0816 493.114 60.7201 492.754 60.4833 492.046L47.6313 457.322C47.4389 456.779 47.0406 456.333 46.5218 456.079C45.5769 455.701 44.5816 455.462 43.5675 455.371C43.1312 455.247 42.9068 454.874 42.9068 454.227C42.9189 453.926 42.9606 453.626 43.0315 453.333L44.8514 453.457C45.2139 453.457 45.5764 453.479 45.9368 453.502C46.2333 453.52 46.5284 453.538 46.821 453.544L48.7407 453.606H50.3862C51.3834 453.606 52.5926 453.606 54.0012 453.519C54.6432 453.479 55.2698 453.45 55.8796 453.422L55.8836 453.421L55.9017 453.421H55.9027L55.9039 453.421L55.9055 453.42L55.9114 453.42L55.914 453.42C56.6298 453.387 57.3225 453.354 57.9902 453.308C58.0549 453.623 58.0924 453.943 58.1024 454.265C58.1024 454.861 57.8904 455.209 57.4417 455.284C56.5173 455.35 55.6089 455.56 54.7491 455.905C54.472 456.005 54.2324 456.187 54.0629 456.427C53.8934 456.667 53.8022 456.954 53.8017 457.247C53.7986 457.498 53.8586 457.746 53.9762 457.968L63.0138 482.6L73.2979 453.022ZM132.833 489.161C132.685 488.87 132.624 488.543 132.659 488.218L132.509 457.856C132.478 457.525 132.54 457.192 132.688 456.894C132.835 456.596 133.062 456.344 133.344 456.166C134.323 455.695 135.378 455.4 136.461 455.296C136.86 455.222 137.059 454.874 137.059 454.277C137.05 453.955 137.008 453.634 136.934 453.32C136.31 453.366 135.665 453.398 135.005 453.431H135.004H135.004C134.412 453.46 133.808 453.49 133.195 453.532C131.898 453.618 130.764 453.618 129.754 453.618C128.745 453.618 127.498 453.594 126.251 453.532C125.005 453.469 123.758 453.407 122.512 453.32C122.438 453.634 122.396 453.955 122.387 454.277C122.383 454.503 122.425 454.727 122.512 454.936C122.549 455.034 122.613 455.12 122.697 455.184C122.78 455.248 122.88 455.287 122.985 455.296C124.068 455.4 125.123 455.695 126.102 456.166C126.384 456.344 126.611 456.596 126.759 456.894C126.906 457.192 126.968 457.525 126.937 457.856V488.218C126.968 488.547 126.907 488.879 126.759 489.175C126.612 489.472 126.384 489.721 126.102 489.896C125.114 490.349 124.064 490.651 122.985 490.79C122.587 490.865 122.387 491.188 122.387 491.747C122.395 492.07 122.437 492.391 122.512 492.704C123.151 492.66 123.777 492.628 124.41 492.596L124.412 492.596L124.413 492.596C125.014 492.566 125.621 492.535 126.251 492.493C127.548 492.406 128.707 492.406 129.817 492.406C130.926 492.406 132.098 492.443 133.344 492.493C134.591 492.543 135.837 492.617 137.084 492.704C137.159 492.391 137.2 492.07 137.209 491.747C137.209 491.188 137.009 490.865 136.61 490.79C135.537 490.607 134.491 490.294 133.494 489.858C133.211 489.695 132.981 489.452 132.833 489.161ZM171.128 488.106C171.11 488.408 171.187 488.707 171.348 488.964C171.508 489.22 171.745 489.42 172.025 489.535C172.815 489.857 173.666 490.002 174.518 489.958H181.038C182.054 489.98 183.065 489.829 184.03 489.51C184.826 489.247 185.56 488.824 186.186 488.268C186.817 487.67 187.351 486.978 187.769 486.217C188.265 485.331 188.682 484.404 189.016 483.446C189.061 483.296 189.156 483.166 189.285 483.078C189.415 482.99 189.57 482.949 189.726 482.961C189.947 482.966 190.163 483.016 190.362 483.11L191.048 483.446C190.761 484.687 190.5 485.928 190.239 487.169L190.238 487.174C189.976 488.417 189.751 490.02 189.552 491.685C189.552 492.12 189.39 492.406 189.19 492.518C188.972 492.648 188.721 492.713 188.467 492.704C187.794 492.704 186.947 492.642 185.974 492.543C185.002 492.443 184.08 492.406 183.319 492.406H168.36C167.438 492.406 166.279 492.406 164.883 492.493C164.225 492.534 163.581 492.564 162.951 492.593C162.244 492.626 161.554 492.658 160.881 492.704C160.807 492.391 160.765 492.07 160.756 491.747C160.756 491.188 160.956 490.865 161.355 490.791C162.515 490.657 163.646 490.343 164.708 489.858C164.994 489.709 165.23 489.48 165.389 489.201C165.548 488.921 165.623 488.601 165.606 488.28V457.856C165.636 457.525 165.575 457.192 165.427 456.894C165.28 456.596 165.052 456.344 164.77 456.166C163.754 455.688 162.661 455.393 161.542 455.296C161.446 455.279 161.355 455.24 161.277 455.182C161.199 455.123 161.136 455.048 161.093 454.961C160.99 454.77 160.938 454.556 160.943 454.339C160.951 453.997 160.988 453.656 161.056 453.32C162.38 453.405 163.681 453.466 164.97 453.527L164.974 453.527L165.07 453.532C166.391 453.594 167.563 453.618 168.423 453.618C169.769 453.618 171.215 453.618 172.723 453.532C173.372 453.494 173.996 453.466 174.591 453.439H174.592H174.593C175.38 453.403 176.118 453.37 176.8 453.32C176.864 453.635 176.902 453.956 176.912 454.277C176.912 454.961 176.7 455.321 176.264 455.358C174.961 455.457 173.68 455.746 172.462 456.216C172.064 456.388 171.731 456.679 171.507 457.049C171.284 457.419 171.182 457.849 171.215 458.279L171.128 488.106ZM250.596 479.991C251.412 477.751 251.834 475.389 251.842 473.006C251.855 470.432 251.421 467.876 250.558 465.45C249.767 463.157 248.491 461.059 246.819 459.298C245.032 457.482 242.883 456.059 240.511 455.122C237.699 454.037 234.701 453.51 231.686 453.569H217.712H216.066L214.308 453.469C213.685 453.457 212.962 453.407 212.115 453.32C212.05 453.635 212.012 453.956 212.002 454.277C212 454.505 212.051 454.731 212.152 454.936C212.198 455.033 212.267 455.117 212.355 455.18C212.442 455.243 212.544 455.283 212.651 455.296C213.768 455.441 214.859 455.742 215.892 456.191C216.187 456.352 216.43 456.595 216.589 456.89C216.749 457.186 216.818 457.522 216.789 457.856V488.193C216.805 488.518 216.721 488.841 216.55 489.118C216.379 489.395 216.128 489.614 215.829 489.747C214.808 490.195 213.743 490.537 212.651 490.766C212.214 490.84 212.002 491.163 212.002 491.723C212.012 492.044 212.049 492.364 212.115 492.68C212.758 492.634 213.411 492.602 214.077 492.57C214.688 492.54 215.309 492.51 215.941 492.468C217.263 492.381 218.435 492.381 219.482 492.381H231.748C234.794 492.447 237.819 491.866 240.623 490.679C242.993 489.64 245.117 488.116 246.856 486.205C248.498 484.397 249.769 482.286 250.596 479.991ZM241.022 460.479C244.08 463.461 245.61 468.018 245.61 474.149H245.572C245.593 476.357 245.287 478.556 244.662 480.674C244.124 482.538 243.14 484.244 241.795 485.645C240.361 487.101 238.595 488.189 236.647 488.814C234.133 489.611 231.505 489.984 228.868 489.921C227.597 489.921 226.537 489.883 225.702 489.796C225.034 489.752 224.373 489.631 223.732 489.436C223.329 489.333 222.97 489.101 222.71 488.777C222.504 488.483 222.399 488.129 222.411 487.771V456.03H227.647C233.505 456.013 237.964 457.496 241.022 460.479ZM285.712 456.067V471.341H295.049C295.421 471.353 295.788 471.247 296.095 471.036C296.403 470.826 296.634 470.523 296.757 470.172C297.134 469.266 297.406 468.32 297.567 467.351C297.61 467.108 297.745 466.891 297.945 466.745C298.145 466.599 298.393 466.536 298.639 466.568C298.798 466.575 298.957 466.596 299.113 466.631L299.599 466.742C299.511 467.625 299.449 468.619 299.387 469.725C299.324 470.831 299.3 471.813 299.3 472.658V475.144C299.3 476.11 299.408 477.185 299.53 478.392L299.531 478.394L299.531 478.397L299.531 478.399L299.536 478.449C299.244 478.53 298.942 478.572 298.639 478.574C298.003 478.574 297.617 478.313 297.504 477.803C297.343 476.827 297.072 475.872 296.694 474.957C296.57 474.609 296.337 474.308 296.03 474.101C295.723 473.893 295.357 473.788 294.986 473.801H285.65V487.87C285.65 488.703 286.186 489.262 287.27 489.535C289.022 489.88 290.808 490.022 292.593 489.958H295.959C296.988 489.979 298.011 489.806 298.975 489.448C299.812 489.127 300.584 488.66 301.257 488.069C301.938 487.473 302.53 486.782 303.014 486.018C303.563 485.174 304.063 484.298 304.51 483.396C304.635 483.11 304.934 482.973 305.408 482.973C305.63 482.982 305.848 483.041 306.043 483.147L306.667 483.508C306.269 484.382 305.96 485.294 305.744 486.229L304.996 489.237C304.8 490.08 304.551 490.911 304.248 491.723C303.987 492.394 303.663 492.742 303.264 492.742C302.865 492.742 302.478 492.742 301.88 492.679C301.386 492.628 300.858 492.611 300.296 492.592C300.177 492.588 300.057 492.584 299.935 492.58C299.721 492.572 299.505 492.569 299.289 492.566H299.286C298.799 492.56 298.308 492.553 297.816 492.493C297.33 492.433 296.884 492.455 296.483 492.475L296.404 492.479L296.295 492.484L296.231 492.487L296.161 492.489L296.118 492.491C296.064 492.492 296.011 492.493 295.959 492.493H282.845C281.686 492.493 280.452 492.493 279.105 492.58C278.495 492.619 277.909 492.649 277.343 492.677L277.339 492.677C276.658 492.711 276.005 492.744 275.366 492.791C275.291 492.477 275.249 492.157 275.241 491.834C275.241 491.275 275.44 490.952 275.839 490.877C276.961 490.717 278.059 490.417 279.105 489.983C279.42 489.835 279.683 489.596 279.859 489.296C280.035 488.997 280.115 488.651 280.09 488.305V457.856C280.124 457.527 280.06 457.196 279.904 456.904C279.749 456.612 279.51 456.372 279.217 456.216C278.133 455.774 276.998 455.465 275.839 455.296C275.44 455.222 275.241 454.874 275.241 454.277C275.226 454.112 275.226 453.945 275.241 453.78C275.259 453.625 275.288 453.471 275.328 453.32C277.036 453.445 278.482 453.531 279.629 453.569C280.408 453.594 281.142 453.585 281.821 453.577L281.828 453.576C282.146 453.573 282.452 453.569 282.745 453.569H294.538H294.539C296.333 453.569 297.879 453.569 299.2 453.395C300.521 453.221 301.394 453.221 301.83 453.221C302.266 453.221 302.703 453.544 302.877 454.203C303.086 454.973 303.236 455.758 303.326 456.551C303.451 457.471 303.588 458.441 303.75 459.484C303.875 460.408 304.18 461.299 304.647 462.107C304.335 462.342 303.954 462.468 303.563 462.467C303.358 462.491 303.152 462.451 302.971 462.353C302.79 462.255 302.644 462.104 302.553 461.92C302.139 461.014 301.677 460.131 301.169 459.273C300.771 458.585 300.257 457.972 299.649 457.459C299.036 456.953 298.322 456.585 297.554 456.377C296.57 456.119 295.555 455.997 294.538 456.017L285.712 456.067ZM339.862 474.982H344.287L353.836 488.727C354.534 489.751 355.374 490.671 356.329 491.462C357.008 492.102 357.89 492.485 358.822 492.543C359.982 492.543 361.166 492.568 362.475 492.63C363.784 492.692 364.906 492.754 365.816 492.841C365.896 492.486 365.938 492.124 365.94 491.76C365.94 491.288 365.766 491.014 365.404 490.927C364.521 490.699 363.658 490.4 362.824 490.032C361.814 489.552 360.953 488.809 360.331 487.882L350.358 474.05C351.598 473.612 352.76 472.978 353.799 472.173C354.718 471.471 355.525 470.633 356.192 469.688C356.789 468.824 357.255 467.878 357.576 466.879C357.864 465.992 358.016 465.065 358.025 464.133C358.09 462.692 357.828 461.255 357.258 459.929C356.688 458.603 355.825 457.423 354.734 456.477C352.54 454.588 349.286 453.631 344.973 453.631H336.895C335.736 453.631 334.49 453.606 333.243 453.544C331.996 453.482 330.75 453.42 329.503 453.333C329.429 453.647 329.388 453.967 329.379 454.29C329.379 454.936 329.578 455.309 329.977 455.309C331.151 455.363 332.301 455.659 333.355 456.179C333.642 456.352 333.877 456.6 334.035 456.895C334.193 457.19 334.268 457.522 334.253 457.856V488.218C334.279 488.56 334.206 488.902 334.042 489.204C333.879 489.506 333.631 489.755 333.33 489.921C332.313 490.373 331.233 490.666 330.127 490.791C329.69 490.865 329.466 491.188 329.466 491.747C329.474 492.07 329.516 492.391 329.591 492.704C330.236 492.657 330.904 492.625 331.595 492.591H331.596L331.961 492.573C332.071 492.568 332.182 492.563 332.293 492.557C332.503 492.546 332.715 492.535 332.93 492.523C333.091 492.513 333.254 492.504 333.417 492.493C334.776 492.406 335.973 492.406 337.008 492.406C338.479 492.406 339.987 492.443 341.52 492.493C343.053 492.543 344.362 492.617 345.447 492.704C345.515 492.369 345.552 492.028 345.559 491.685C345.559 491.089 345.322 490.753 344.848 490.666C343.575 490.56 342.32 490.301 341.109 489.896C340.731 489.778 340.404 489.538 340.178 489.214C339.952 488.89 339.841 488.5 339.862 488.106V474.982ZM349.498 470.732C347.603 472.022 345.331 472.643 343.041 472.497L339.862 472.447V455.98H342.854C344.27 455.945 345.681 456.169 347.017 456.638C348.063 457.014 349.006 457.626 349.772 458.428C350.473 459.199 350.993 460.116 351.293 461.113C351.623 462.217 351.783 463.365 351.767 464.518C351.767 467.513 351.019 469.564 349.498 470.732ZM417.112 482.911V457.981C417.144 457.613 417.071 457.244 416.901 456.916C416.731 456.589 416.471 456.316 416.152 456.129C415.133 455.666 414.04 455.384 412.923 455.296C412.487 455.296 412.263 454.923 412.263 454.277C412.272 453.955 412.314 453.634 412.387 453.32C413.385 453.407 414.394 453.469 415.442 453.532C416.489 453.594 417.449 453.618 418.371 453.618C419.293 453.618 420.166 453.618 421.126 453.532C421.592 453.489 422.05 453.459 422.503 453.429H422.503L422.507 453.428C422.985 453.396 423.458 453.365 423.931 453.32C423.998 453.635 424.04 453.955 424.055 454.277C424.055 454.923 423.856 455.259 423.457 455.296C422.457 455.381 421.487 455.682 420.615 456.179C420.358 456.383 420.157 456.648 420.028 456.95C419.9 457.251 419.849 457.58 419.879 457.906V493.04C419.745 493.098 419.601 493.131 419.455 493.139H418.982C418.706 493.14 418.435 493.067 418.196 492.928C417.867 492.697 417.583 492.406 417.361 492.071L393.066 460.156V488.243C393.036 488.572 393.098 488.903 393.246 489.199C393.393 489.495 393.62 489.745 393.901 489.921C394.93 490.381 396.023 490.682 397.142 490.815C397.541 490.89 397.74 491.213 397.74 491.772C397.726 492.094 397.684 492.414 397.616 492.729C396.618 492.642 395.609 492.568 394.599 492.518C393.589 492.468 392.63 492.431 391.757 492.431H391.756C390.884 492.431 390.011 492.431 388.94 492.518C388.47 492.556 388.018 492.585 387.584 492.612C387.027 492.647 386.501 492.68 386.01 492.729C385.936 492.415 385.894 492.095 385.886 491.772C385.886 491.213 386.11 490.89 386.546 490.815C387.558 490.681 388.54 490.378 389.451 489.921C389.711 489.73 389.917 489.475 390.048 489.181C390.179 488.886 390.231 488.563 390.199 488.243V457.558C390.212 457.278 390.157 457 390.037 456.746C389.918 456.493 389.738 456.272 389.513 456.104C388.636 455.631 387.666 455.355 386.671 455.296C386.222 455.222 386.01 454.874 386.01 454.277C386.004 454.097 386.025 453.917 386.073 453.743C386.056 453.602 386.056 453.461 386.073 453.32C386.904 453.403 387.664 453.465 388.354 453.507L390.386 453.594H392.305C393.072 453.573 393.839 453.615 394.599 453.718C394.975 453.792 395.309 454.005 395.534 454.314L417.112 482.911ZM457.737 471.341V456.067L466.562 456.017C467.584 455.997 468.603 456.119 469.591 456.377C470.357 456.59 471.07 456.958 471.686 457.459C472.294 457.972 472.808 458.585 473.206 459.273C473.647 460.002 474.108 460.885 474.59 461.92C474.68 462.105 474.826 462.258 475.007 462.356C475.188 462.454 475.395 462.493 475.6 462.467C475.991 462.468 476.372 462.342 476.684 462.107C476.206 461.304 475.901 460.411 475.787 459.484C475.625 458.441 475.488 457.471 475.363 456.551C475.261 455.76 475.111 454.976 474.914 454.203C474.74 453.544 474.303 453.221 473.867 453.221C473.431 453.221 472.558 453.221 471.237 453.395C469.916 453.569 468.358 453.569 466.563 453.569H466.562H454.782C454.487 453.569 454.18 453.573 453.861 453.577C453.184 453.585 452.454 453.594 451.666 453.569C450.507 453.531 449.073 453.445 447.365 453.32C447.354 453.37 447.34 453.421 447.326 453.47C447.315 453.51 447.304 453.549 447.294 453.588C447.278 453.655 447.266 453.72 447.266 453.78V454.277C447.266 454.874 447.465 455.222 447.864 455.296C449.023 455.465 450.157 455.774 451.242 456.216C451.534 456.372 451.774 456.612 451.929 456.904C452.084 457.196 452.149 457.527 452.115 457.856V488.305C452.138 488.651 452.057 488.996 451.881 489.295C451.706 489.594 451.444 489.834 451.13 489.983C450.083 490.417 448.986 490.717 447.864 490.877C447.465 490.952 447.266 491.275 447.266 491.834C447.274 492.157 447.316 492.477 447.39 492.791C448.029 492.744 448.683 492.711 449.364 492.677L449.368 492.677C449.934 492.649 450.519 492.619 451.13 492.58C452.476 492.493 453.71 492.493 454.87 492.493H467.983C468.143 492.493 468.315 492.485 468.498 492.475H468.498C468.9 492.456 469.353 492.433 469.841 492.493C470.332 492.553 470.824 492.56 471.311 492.566H471.314C471.53 492.569 471.746 492.572 471.96 492.58C472.082 492.584 472.202 492.588 472.32 492.592C472.882 492.611 473.41 492.628 473.905 492.679C474.503 492.742 474.877 492.742 475.276 492.742C475.675 492.742 476.024 492.431 476.273 491.723C476.522 491.014 476.772 490.194 477.021 489.237L477.769 486.229C477.98 485.292 478.289 484.38 478.691 483.508L478.068 483.147C477.872 483.041 477.655 482.982 477.432 482.973C476.959 482.973 476.659 483.11 476.535 483.396C476.088 484.298 475.588 485.174 475.039 486.018C474.551 486.779 473.959 487.469 473.281 488.069C472.609 488.66 471.837 489.127 471 489.448C470.035 489.805 469.012 489.978 467.983 489.958H464.63C462.845 490.023 461.059 489.881 459.307 489.535C458.223 489.262 457.687 488.703 457.687 487.87V473.801H467.024C467.394 473.788 467.76 473.893 468.067 474.101C468.374 474.308 468.607 474.609 468.731 474.957C469.103 475.874 469.375 476.828 469.542 477.803C469.654 478.313 470.028 478.574 470.676 478.574C470.979 478.572 471.281 478.53 471.573 478.449C471.56 478.314 471.546 478.179 471.532 478.047C471.423 476.979 471.324 476.017 471.324 475.144V472.658C471.324 471.813 471.349 470.831 471.411 469.725C471.474 468.619 471.536 467.625 471.623 466.742L471.137 466.631C470.981 466.597 470.823 466.576 470.663 466.568C470.418 466.536 470.169 466.599 469.97 466.745C469.77 466.891 469.634 467.108 469.591 467.351C469.425 468.318 469.153 469.264 468.781 470.172C468.659 470.523 468.427 470.826 468.12 471.036C467.813 471.247 467.446 471.353 467.073 471.341H457.737ZM526.971 462.989C526.676 463.06 526.376 463.102 526.073 463.113C525.668 463.145 525.264 463.04 524.926 462.815C524.706 462.633 524.524 462.409 524.39 462.156C523.592 460.207 522.304 458.495 520.65 457.185C518.904 456.07 516.85 455.531 514.779 455.644C513.859 455.637 512.943 455.767 512.062 456.03C511.25 456.264 510.489 456.648 509.818 457.16C509.188 457.651 508.669 458.269 508.297 458.975C507.909 459.71 507.712 460.53 507.724 461.361C507.712 462.261 507.92 463.15 508.33 463.951C508.741 464.753 509.341 465.442 510.08 465.959C512.241 467.465 514.587 468.688 517.06 469.601C520.192 470.694 523.071 472.406 525.525 474.634C526.414 475.534 527.113 476.602 527.58 477.777C528.047 478.951 528.272 480.207 528.242 481.469C528.254 483.021 528.001 484.563 527.494 486.031C527.013 487.435 526.216 488.71 525.163 489.759C524 490.884 522.599 491.733 521.062 492.244C519.112 492.884 517.068 493.187 515.016 493.139C512.753 493.161 510.496 492.903 508.297 492.369C506.499 491.94 504.774 491.254 503.174 490.331C503.049 488.665 502.875 487.05 502.638 485.509C502.401 483.967 502.114 482.402 501.803 480.848C502.125 480.726 502.468 480.666 502.812 480.674C503.208 480.65 503.601 480.764 503.922 480.997C504.227 481.288 504.462 481.646 504.607 482.041C505.316 484.451 506.649 486.633 508.472 488.367C510.353 489.821 512.702 490.541 515.078 490.393C516.219 490.418 517.355 490.237 518.432 489.858C519.328 489.538 520.144 489.03 520.825 488.367C521.449 487.758 521.937 487.026 522.259 486.217C522.586 485.403 522.751 484.534 522.745 483.657C522.789 482.732 522.619 481.81 522.25 480.962C521.88 480.113 521.32 479.36 520.613 478.76C518.79 477.347 516.737 476.258 514.542 475.541C512.953 474.96 511.396 474.292 509.88 473.54C508.578 472.906 507.37 472.094 506.29 471.129C505.307 470.236 504.521 469.148 503.984 467.935C503.414 466.566 503.138 465.093 503.174 463.611C503.166 462.187 503.442 460.776 503.984 459.46C504.509 458.183 505.304 457.034 506.315 456.092C507.405 455.106 508.675 454.339 510.055 453.83C511.605 453.253 513.25 452.97 514.904 452.997C516.713 452.989 518.517 453.168 520.289 453.531C522.27 453.972 524.213 454.571 526.098 455.321C526.173 456.564 526.285 457.807 526.422 459.174C526.538 460.454 526.721 461.728 526.971 462.989ZM577.045 463.113C577.348 463.102 577.648 463.061 577.943 462.989C577.681 461.796 577.506 460.541 577.357 459.174C577.207 457.807 577.108 456.564 577.02 455.321C575.139 454.573 573.2 453.974 571.224 453.531C569.452 453.168 567.647 452.989 565.839 452.997C564.184 452.97 562.539 453.253 560.989 453.83C559.63 454.343 558.382 455.11 557.312 456.092C556.301 457.037 555.502 458.185 554.969 459.46C554.431 460.777 554.16 462.188 554.171 463.611C554.131 465.092 554.403 466.565 554.969 467.935C555.51 469.146 556.295 470.233 557.275 471.129C558.354 472.094 559.562 472.906 560.865 473.54C562.385 474.292 563.946 474.96 565.539 475.541C567.733 476.261 569.786 477.35 571.61 478.76C572.313 479.363 572.869 480.117 573.236 480.965C573.603 481.813 573.772 482.734 573.729 483.657C573.733 484.532 573.573 485.401 573.256 486.217C572.928 487.023 572.44 487.754 571.822 488.367C571.137 489.024 570.322 489.532 569.429 489.858C568.352 490.236 567.216 490.417 566.075 490.393C563.696 490.539 561.344 489.819 559.456 488.367C557.642 486.629 556.314 484.448 555.604 482.041C555.454 481.648 555.22 481.292 554.919 480.997C554.597 480.766 554.205 480.652 553.809 480.674C553.461 480.668 553.114 480.727 552.787 480.848C553.111 482.402 553.373 483.968 553.622 485.509C553.872 487.05 554.046 488.665 554.171 490.331C555.766 491.254 557.488 491.94 559.282 492.369C561.485 492.902 563.746 493.161 566.013 493.139C568.065 493.186 570.109 492.883 572.059 492.245C573.594 491.731 574.996 490.881 576.16 489.759C577.209 488.707 578.005 487.432 578.491 486.031C578.998 484.564 579.251 483.021 579.239 481.469C579.269 480.206 579.043 478.949 578.574 477.774C578.105 476.599 577.403 475.531 576.509 474.634C574.058 472.404 571.178 470.691 568.045 469.601C565.576 468.689 563.234 467.465 561.077 465.959C560.337 465.442 559.735 464.754 559.322 463.952C558.909 463.151 558.699 462.262 558.708 461.361C558.703 460.531 558.899 459.712 559.282 458.975C559.654 458.269 560.172 457.651 560.802 457.16C561.476 456.652 562.236 456.269 563.046 456.03C563.932 455.767 564.852 455.637 565.776 455.644C567.843 455.53 569.893 456.07 571.635 457.185C573.288 458.496 574.576 460.207 575.375 462.156C575.505 462.411 575.687 462.636 575.911 462.815C576.244 463.04 576.644 463.145 577.045 463.113Z" fill="white"/>
</svg>
