<svg width="208" height="43" viewBox="0 0 208 43" fill="none" xmlns="http://www.w3.org/2000/svg">
<g clip-path="url(#clip0_538_10245)">
<path d="M28.4414 39.1965C28.9322 39.0574 29.6968 38.9182 30.199 38.7907C30.7354 39.4283 26.7751 23.2906 28.099 5.22849C27.5398 5.15893 27.517 5.08937 26.9577 5.00822C27.3115 4.95025 24.6752 14.9783 28.4414 39.1965Z" fill="white"/>
<path d="M0.994206 29.7017H0.4578C-0.0605764 24.7261 -0.140785 19.7134 0.218129 14.7234H0.788774C0.585448 19.7131 0.738019 24.7112 1.24529 29.6785" fill="white"/>
<path d="M3.1061 20.2185L2.50122 20.1373C2.95303 15.6545 3.88293 11.2347 5.27455 6.95589L5.91368 7.08342C4.45288 11.3288 3.50999 15.74 3.1061 20.2185Z" fill="white"/>
<path d="M37.2293 28.2756H37.7885C37.7885 28.2756 38.382 18.92 37.6972 15.6159H37.2978C37.5636 19.8296 37.4528 24.0591 36.9668 28.2525" fill="white"/>
<path d="M7.78421 33.7709H7.33911C7.33911 33.7709 7.80704 18.4216 8.67442 13.0539H8.99398C8.99398 13.2278 8.06954 19.0244 7.78421 33.7361" fill="white"/>
<path d="M34.2381 33.5157H33.6675C33.6675 33.5157 33.93 18.1548 34.9685 12.7524H35.6419C35.6419 12.9147 34.5006 18.6997 34.4436 33.423" fill="white"/>
<path d="M21.684 42.9528C22.3098 42.9419 22.9284 42.8162 23.5101 42.5818C22.148 28.813 22.4815 14.9255 24.503 1.24056C24.0922 1.08984 23.8182 0.939133 23.3617 0.788422C23.3617 0.788422 22.8025 3.67512 22.0264 10.5035C20.8775 21.2864 20.7476 32.1563 21.6384 42.9644" fill="white"/>
<path d="M16.8471 -1.54832e-05C16.0596 13.3901 14.2678 27.0584 15.9797 40.4833C15.9112 39.95 17.9998 40.4833 17.9313 39.9964C16.3449 27.2439 16.9955 13.1235 17.7487 0.208662C17.468 0.0696211 17.1594 -0.00178777 16.8471 -1.54832e-05Z" fill="white"/>
<path d="M16.9822 42.0717C16.1947 42.234 15.955 42.3963 15.1675 42.5586C12.3504 29.8343 11.2181 16.7849 11.8007 3.75627C12.1736 3.6474 12.5691 3.6474 12.942 3.75627C12.9991 3.83742 13.2273 24.2646 16.9479 42.0137" fill="white"/>
<path d="M19.9864 41.1905C19.5742 41.2945 19.1432 41.2945 18.731 41.1905C18.0956 28.5832 18.765 15.9431 20.7282 3.47788C20.7282 3.33876 21.082 3.47788 21.2076 3.47788C21.3331 3.47788 19.1419 17.4592 20.2603 41.0513" fill="white"/>
<path d="M25.8846 39.4167C25.7998 39.4534 25.7086 39.4723 25.6164 39.4723C25.5243 39.4723 25.433 39.4534 25.3482 39.4167C24.5293 30.6472 24.3272 21.8294 24.7433 13.0307C24.7433 12.9611 24.9374 13.0307 25.0058 13.0307C24.6645 21.8159 25.0463 30.6148 26.1471 39.3356" fill="white"/>
<path d="M11.6879 40.6689C11.432 40.7239 11.1676 40.7239 10.9118 40.6689C9.89887 28.7184 9.49507 16.7228 9.70201 4.73004C9.70201 4.57933 10.0558 4.66048 10.1699 4.73004C10.2841 4.7996 9.82755 14.6074 12.2128 40.5761" fill="white"/>
<path d="M8.44677 35.9389L7.30548 36.194C5.90211 26.1556 5.39407 16.009 5.78757 5.87785L6.92886 6.08653C7.21418 6.08653 6.12996 14.8278 8.65221 35.9157" fill="white"/>
<path d="M4.19147 39.5211C4.54527 39.4399 5.41265 39.3472 5.77786 39.2661C4.8632 28.5056 5.04678 17.6779 6.32568 6.95589L5.18439 6.65447C5.1045 6.87474 3.1529 17.9114 4.18006 39.5559" fill="white"/>
<path d="M31.9577 30.9306L32.8251 30.7799C31.5931 24.1918 31.2476 17.4642 31.798 10.7817H31.1132C30.3223 17.4856 30.3223 24.2614 31.1132 30.9654" fill="white"/>
<path d="M32.1299 36.02L33.2711 35.7765C32.6133 26.7504 32.9964 17.6771 34.4124 8.74125L33.2711 8.41664C33.5336 8.41664 31.331 14.3639 32.1299 36.02Z" fill="white"/>
<path d="M60.1347 15.8943H60.3059C60.4314 15.8943 60.5113 15.9638 60.557 16.1145L63.5129 24.6007L65.9895 17.4941C65.9929 17.4323 65.9929 17.3704 65.9895 17.3086C65.9943 17.2546 65.9943 17.2003 65.9895 17.1463C65.9868 17.0665 65.9602 16.9893 65.9133 16.9251C65.8664 16.8609 65.8015 16.8128 65.727 16.7869C65.4687 16.6788 65.1953 16.6123 64.9167 16.5899C64.7911 16.5899 64.7227 16.4739 64.7227 16.2884C64.7117 16.196 64.7117 16.1026 64.7227 16.0102L65.6814 16.0682H66.5601H67.4618C67.7813 16.0682 68.0324 16.0682 68.2264 16.0102C68.2216 16.0564 68.2216 16.1031 68.2264 16.1493C68.2301 16.1956 68.2301 16.2421 68.2264 16.2884C68.2264 16.4739 68.158 16.5783 68.0096 16.6015C67.7379 16.6282 67.4721 16.6987 67.2221 16.8101C67.1279 16.8557 67.0439 16.9203 66.9752 17C66.9065 17.0798 66.8546 17.173 66.8226 17.2739L63.1363 27.7077H62.9423C62.8053 27.7077 62.7026 27.6034 62.6341 27.3947L59.7124 19.152L56.7336 27.6729C56.6773 27.6863 56.6188 27.6863 56.5625 27.6729C56.4255 27.6729 56.3114 27.5686 56.2429 27.3599L52.4881 17.1695C52.4591 17.0903 52.4149 17.0178 52.3581 16.9561C52.3013 16.8944 52.2329 16.8448 52.1571 16.8101C51.8846 16.6926 51.5959 16.6183 51.3011 16.5899C51.1642 16.5899 51.1071 16.4507 51.1071 16.2653C51.0994 16.1765 51.0994 16.0873 51.1071 15.9986H51.6435H52.2141H52.7734H53.2527H54.3141L55.4554 15.9406C55.4639 16.0332 55.4639 16.1263 55.4554 16.2189C55.4554 16.3928 55.3869 16.4971 55.2614 16.5203C54.9903 16.5355 54.7239 16.5982 54.4739 16.7058C54.3937 16.7346 54.3243 16.788 54.2752 16.8586C54.2261 16.9292 54.1998 17.0135 54.2 17.1C54.184 17.1686 54.184 17.24 54.2 17.3086L56.8478 24.5312L60.1347 15.8943Z" fill="white"/>
<path d="M77.4716 26.2122C77.4622 26.3081 77.4798 26.4047 77.5222 26.4908C77.5646 26.577 77.6302 26.6492 77.7113 26.6991C78.0048 26.8225 78.3111 26.9119 78.6243 26.9657C78.7385 26.9657 78.7955 27.0585 78.7955 27.244C78.8042 27.3404 78.8042 27.4374 78.7955 27.5338L77.6542 27.4643H76.6271H75.5771L74.5043 27.5338C74.4956 27.4374 74.4956 27.3404 74.5043 27.244C74.5043 27.0817 74.5613 26.9889 74.6755 26.9657C74.9903 26.9256 75.2978 26.8397 75.5885 26.7107C75.6708 26.6585 75.7377 26.5845 75.7819 26.4967C75.8261 26.4089 75.8461 26.3106 75.8396 26.2122V17.3086C75.8461 17.2102 75.8261 17.1119 75.7819 17.0241C75.7377 16.9363 75.6708 16.8624 75.5885 16.8101C75.3017 16.6701 74.9924 16.5837 74.6755 16.5551C74.6453 16.5527 74.6163 16.5416 74.5921 16.5231C74.5678 16.5046 74.5492 16.4795 74.5385 16.4507C74.5267 16.3856 74.5267 16.3188 74.5385 16.2537C74.53 16.1611 74.53 16.068 74.5385 15.9754L75.6798 16.0334H76.707H77.7113L78.8526 15.9754C78.8261 16.0635 78.7918 16.1489 78.7499 16.2305C78.7499 16.4044 78.6928 16.5087 78.5787 16.5319C78.2617 16.5605 77.9524 16.6469 77.6656 16.7869C77.5845 16.8397 77.5192 16.9141 77.477 17.0021C77.4347 17.09 77.4171 17.188 77.426 17.2855L77.4716 26.2122Z" fill="white"/>
<path d="M88.7244 26.1775C88.7203 26.2661 88.7433 26.3538 88.7903 26.4286C88.8374 26.5033 88.906 26.5614 88.9869 26.5949C89.2137 26.6932 89.4597 26.7368 89.7059 26.7224H91.6118C91.9095 26.7266 92.206 26.6835 92.4906 26.5949C92.7221 26.5095 92.9352 26.3796 93.1183 26.2123C93.3031 26.0392 93.4575 25.8353 93.5749 25.6095C93.7235 25.3523 93.8458 25.0804 93.9401 24.798C93.9531 24.7541 93.9807 24.7163 94.0182 24.6909C94.0557 24.6655 94.1007 24.6542 94.1455 24.6588C94.2054 24.6431 94.2682 24.6431 94.3281 24.6588L94.5335 24.7516C94.4575 25.0994 94.3776 25.4858 94.2939 25.9109C94.2254 26.3051 94.1569 26.7456 94.0998 27.2325C94.0998 27.36 94.0998 27.4412 93.9857 27.476C93.9237 27.5139 93.8527 27.5339 93.7803 27.5339C93.5863 27.5339 93.3352 27.5339 93.0384 27.5339C92.78 27.519 92.5209 27.519 92.2624 27.5339H87.8798H86.8641C86.4532 27.5339 86.0652 27.5339 85.7228 27.6035C85.7148 27.5071 85.7148 27.4101 85.7228 27.3137C85.7228 27.1514 85.7799 27.0586 85.894 27.0354C86.2318 26.9936 86.5622 26.9038 86.8755 26.7688C86.959 26.726 87.0284 26.6592 87.075 26.5768C87.1217 26.4944 87.1436 26.4 87.138 26.3051V17.3783C87.1469 17.2809 87.1293 17.1829 87.087 17.0949C87.0447 17.007 86.9794 16.9326 86.8983 16.8798C86.5996 16.7393 86.279 16.653 85.951 16.6248C85.9244 16.6205 85.8992 16.6098 85.8773 16.5937C85.8555 16.5776 85.8378 16.5564 85.8255 16.532C85.8084 16.4714 85.8084 16.4071 85.8255 16.3465C85.8162 16.2463 85.8162 16.1454 85.8255 16.0451L86.9668 16.1031H87.9483H89.2151L90.3564 16.0451C90.3649 16.1377 90.3649 16.2308 90.3564 16.3234C90.3564 16.5204 90.2879 16.6248 90.1624 16.6364C89.7719 16.6656 89.3876 16.7514 89.0211 16.8914C88.9065 16.9414 88.8098 17.0261 88.7445 17.1341C88.6791 17.242 88.6482 17.3678 88.6559 17.4943L88.7244 26.1775Z" fill="white"/>
<path d="M110.477 22.0851C110.535 21.3611 110.446 20.6328 110.217 19.9449C109.987 19.257 109.621 18.6242 109.142 18.0854C108.059 17.1493 106.657 16.683 105.238 16.787H103.709V26.0615C103.707 26.1657 103.74 26.2675 103.8 26.3513C103.877 26.4468 103.98 26.5157 104.097 26.5484C104.287 26.6047 104.482 26.6397 104.679 26.6528C104.923 26.6528 105.231 26.6528 105.604 26.6528C106.377 26.6763 107.149 26.5666 107.886 26.3282C108.455 26.1472 108.972 25.829 109.393 25.4007C109.782 24.989 110.068 24.4879 110.226 23.94C110.412 23.3164 110.501 22.667 110.488 22.0155L110.477 22.0851ZM112.326 21.6793C112.327 22.379 112.207 23.0736 111.972 23.7313C111.73 24.4069 111.362 25.0288 110.888 25.563C110.372 26.1249 109.746 26.5711 109.05 26.873C108.227 27.2236 107.34 27.3935 106.448 27.3715H102.853H101.826L100.685 27.4411C100.676 27.3447 100.676 27.2477 100.685 27.1513C100.685 26.989 100.742 26.8962 100.879 26.873C101.195 26.8066 101.505 26.7095 101.803 26.5832C101.889 26.5421 101.961 26.4761 102.009 26.3935C102.058 26.311 102.082 26.2156 102.077 26.1195V17.3087C102.087 17.21 102.068 17.1105 102.021 17.0235C101.974 16.9365 101.902 16.8661 101.815 16.8218C101.517 16.6881 101.202 16.5983 100.879 16.5551C100.847 16.5523 100.817 16.5412 100.791 16.5229C100.765 16.5046 100.744 16.4797 100.73 16.4508C100.713 16.3862 100.713 16.3183 100.73 16.2537C100.722 16.1612 100.722 16.068 100.73 15.9755H101.369H101.883H102.362H106.448C107.329 15.9563 108.204 16.1098 109.028 16.4276C109.724 16.6968 110.355 17.116 110.876 17.6565C111.379 18.1657 111.768 18.7784 112.018 19.4534C112.267 20.1598 112.391 20.9057 112.383 21.6561" fill="white"/>
<path d="M122.21 16.7869V21.2619H124.938C125.046 21.2666 125.152 21.2366 125.242 21.1763C125.332 21.1159 125.402 21.0283 125.44 20.9257C125.553 20.6584 125.633 20.3781 125.68 20.091C125.693 20.0204 125.733 19.9575 125.79 19.9146C125.847 19.8718 125.917 19.852 125.988 19.8591H126.136H126.273C126.273 20.1142 126.273 20.404 126.273 20.7286C126.273 21.0532 126.273 21.3431 126.273 21.5865C126.273 21.83 126.273 22.0271 126.273 22.3169C126.273 22.6067 126.273 22.9313 126.341 23.2907H126.079C126.005 23.3013 125.93 23.2834 125.869 23.2404C125.808 23.1974 125.764 23.1326 125.748 23.0589C125.702 22.7717 125.621 22.4914 125.508 22.2241C125.47 22.1216 125.401 22.0339 125.311 21.9736C125.221 21.9132 125.114 21.8832 125.006 21.8879H122.279V26.0151C122.279 26.2586 122.438 26.4325 122.758 26.5136C123.269 26.6099 123.79 26.6488 124.31 26.6295H125.269C125.572 26.6382 125.875 26.587 126.159 26.4788C126.4 26.3863 126.624 26.2531 126.821 26.0847C127.021 25.907 127.194 25.6999 127.334 25.4702C127.497 25.2239 127.646 24.9685 127.78 24.7051C127.78 24.6239 127.894 24.5776 128.042 24.5776C128.102 24.564 128.164 24.564 128.225 24.5776L128.407 24.6819C128.292 24.9393 128.2 25.2071 128.133 25.4818C128.053 25.7832 127.985 26.0847 127.916 26.3629C127.848 26.6411 127.768 26.8846 127.7 27.0817C127.631 27.2788 127.528 27.3831 127.403 27.3831H127.003H126.433H125.817C125.634 27.3725 125.451 27.3725 125.269 27.3831H121.445H120.361L119.22 27.4527C119.212 27.3562 119.212 27.2593 119.22 27.1628C119.22 27.0005 119.22 26.9078 119.402 26.8846C119.727 26.8365 120.045 26.7509 120.35 26.6295C120.441 26.5854 120.517 26.5141 120.568 26.4252C120.619 26.3362 120.643 26.2337 120.635 26.131V17.3086C120.645 17.2114 120.626 17.1134 120.582 17.0269C120.537 16.9403 120.468 16.869 120.384 16.8217C120.068 16.696 119.738 16.6066 119.402 16.5551C119.277 16.5551 119.22 16.4276 119.22 16.2537C119.22 16.0798 119.22 16.1493 119.22 16.103C119.22 16.0566 119.22 16.0218 119.22 15.9754L120.487 16.045H121.388H124.812C125.337 16.045 125.794 16.045 126.182 16.045C126.57 16.045 126.821 16.045 126.946 16.045C127.072 16.045 127.197 16.1377 127.255 16.3348C127.315 16.559 127.357 16.7877 127.38 17.0188C127.38 17.2855 127.46 17.5753 127.506 17.8767C127.544 18.1501 127.633 18.4137 127.768 18.6534C127.68 18.7219 127.571 18.7586 127.46 18.7578C127.4 18.7662 127.339 18.7551 127.285 18.7259C127.232 18.6967 127.189 18.651 127.163 18.5955C127.041 18.3288 126.904 18.0694 126.752 17.8187C126.638 17.6141 126.487 17.4332 126.307 17.2855C126.129 17.1403 125.923 17.0338 125.702 16.9724C125.412 16.8965 125.112 16.8614 124.812 16.8681L122.21 16.7869Z" fill="white"/>
<path d="M138.964 21.6097C139.633 21.6511 140.298 21.4722 140.859 21.0996C141.101 20.8699 141.288 20.5855 141.403 20.2694C141.518 19.9534 141.558 19.6143 141.521 19.2795C141.523 18.9422 141.477 18.6063 141.384 18.2825C141.295 17.9894 141.143 17.72 140.939 17.4941C140.711 17.2603 140.434 17.082 140.128 16.9724C139.739 16.8373 139.33 16.7745 138.919 16.7869H138.097V21.6097H138.964ZM139.341 22.3285H138.097V26.1774C138.091 26.2948 138.124 26.4106 138.19 26.5071C138.256 26.6035 138.352 26.6751 138.462 26.7107C138.832 26.8321 139.215 26.9061 139.603 26.931C139.752 26.931 139.82 27.0585 139.82 27.2324C139.83 27.3326 139.83 27.4336 139.82 27.5338L138.679 27.4643H137.366H136.317L135.175 27.5338C135.167 27.4374 135.167 27.3404 135.175 27.244C135.175 27.0817 135.175 26.9889 135.358 26.9657C135.682 26.9344 135.998 26.8482 136.294 26.7107C136.383 26.6648 136.457 26.5928 136.506 26.504C136.555 26.4152 136.576 26.3136 136.568 26.2122V17.3086C136.574 17.2102 136.554 17.1119 136.51 17.0241C136.466 16.9363 136.399 16.8624 136.317 16.8101C136.006 16.657 135.668 16.5702 135.324 16.5551C135.209 16.5551 135.152 16.4392 135.152 16.2537C135.144 16.1611 135.144 16.068 135.152 15.9754L136.294 16.0334H137.366H139.718C140.734 15.9586 141.744 16.25 142.571 16.8565C142.887 17.1338 143.137 17.4801 143.303 17.8696C143.469 18.259 143.547 18.6816 143.529 19.1056C143.532 19.3812 143.489 19.6554 143.404 19.9171C143.311 20.2096 143.176 20.4868 143.004 20.7402C142.805 21.0208 142.567 21.2706 142.297 21.4822C141.993 21.7198 141.654 21.9076 141.293 22.0387L144.214 26.0963C144.403 26.3679 144.659 26.584 144.956 26.7223C145.196 26.8314 145.444 26.9206 145.698 26.9889C145.812 26.9889 145.858 27.0933 145.858 27.2324C145.868 27.3365 145.868 27.4413 145.858 27.5454L144.876 27.4874C144.5 27.4874 144.134 27.4874 143.815 27.4874C143.537 27.4747 143.273 27.3593 143.073 27.1628C142.8 26.9322 142.562 26.6627 142.365 26.3629L139.341 22.3285Z" fill="white"/>
<path d="M160.616 24.6587V17.3898C160.625 17.2821 160.604 17.1739 160.556 17.0777C160.507 16.9814 160.433 16.9008 160.342 16.8449C160.042 16.7105 159.722 16.6282 159.395 16.6015C159.269 16.6015 159.201 16.4855 159.201 16.3C159.192 16.2075 159.192 16.1143 159.201 16.0218L160.091 16.0798H160.947H161.757L162.579 16.0218C162.587 16.1143 162.587 16.2075 162.579 16.3C162.579 16.4855 162.579 16.5899 162.408 16.6015C162.12 16.6238 161.84 16.7067 161.586 16.8449C161.512 16.906 161.454 16.9843 161.416 17.0731C161.379 17.1619 161.362 17.2586 161.369 17.355V27.6613C161.332 27.6702 161.293 27.6702 161.255 27.6613H161.107C161.027 27.6587 160.95 27.6389 160.878 27.6034C160.785 27.533 160.704 27.4467 160.639 27.3483L153.54 17.981V26.2238C153.531 26.3212 153.549 26.4193 153.591 26.5072C153.633 26.5951 153.698 26.6695 153.78 26.7223C154.082 26.8517 154.401 26.9375 154.727 26.9773C154.841 26.9773 154.898 27.0701 154.898 27.2556C154.906 27.352 154.906 27.449 154.898 27.5454L154.019 27.4758H153.186H152.364L151.508 27.5454C151.5 27.449 151.5 27.352 151.508 27.2556C151.508 27.0933 151.577 27.0005 151.702 26.9773C151.996 26.9384 152.281 26.8523 152.547 26.7223C152.623 26.6658 152.683 26.5901 152.721 26.5026C152.759 26.415 152.774 26.3189 152.764 26.2238V17.2159C152.767 17.1339 152.751 17.0524 152.717 16.9779C152.684 16.9033 152.633 16.8379 152.57 16.7869C152.31 16.6543 152.027 16.5755 151.737 16.5551C151.611 16.5551 151.543 16.4276 151.543 16.2537C151.536 16.2036 151.536 16.153 151.543 16.103C151.538 16.0606 151.538 16.0178 151.543 15.9754L152.205 16.0334H152.798H153.357C153.581 16.0144 153.807 16.0144 154.031 16.0334C154.141 16.0534 154.239 16.1157 154.305 16.2073L160.616 24.6587Z" fill="white"/>
<path d="M172.496 16.7869V21.2619H175.224C175.33 21.2659 175.435 21.2355 175.523 21.1751C175.612 21.1146 175.679 21.0273 175.715 20.9257C175.828 20.6584 175.908 20.3781 175.955 20.091C175.968 20.0181 176.009 19.9535 176.069 19.9103C176.128 19.8672 176.202 19.8489 176.274 19.8591H176.411H176.548C176.548 20.1142 176.548 20.404 176.491 20.7286C176.434 21.0532 176.491 21.3431 176.491 21.5865C176.491 21.83 176.491 22.0271 176.491 22.3169C176.491 22.6067 176.491 22.9313 176.559 23.2907H176.297C176.223 23.3013 176.148 23.2834 176.087 23.2404C176.026 23.1974 175.982 23.1326 175.966 23.0589C175.92 22.7717 175.839 22.4914 175.726 22.2241C175.69 22.1225 175.623 22.0352 175.535 21.9748C175.447 21.9144 175.342 21.8839 175.236 21.8879H172.508V26.0151C172.508 26.2586 172.656 26.4325 172.976 26.5136C173.487 26.6094 174.008 26.6482 174.528 26.6295H175.498C175.798 26.6385 176.096 26.5872 176.377 26.4788C176.618 26.3863 176.842 26.2531 177.039 26.0847C177.239 25.907 177.412 25.6999 177.552 25.4702C177.715 25.2239 177.863 24.9685 177.997 24.7051C177.997 24.6239 178.112 24.5776 178.26 24.5776C178.32 24.564 178.382 24.564 178.443 24.5776L178.625 24.6819C178.51 24.9393 178.418 25.2071 178.351 25.4818C178.271 25.7832 178.203 26.0847 178.134 26.3629C178.066 26.6411 177.986 26.8846 177.918 27.0817C177.849 27.2788 177.746 27.3831 177.632 27.3831H177.221H176.651H176.034C175.856 27.3727 175.677 27.3727 175.498 27.3831H171.652H170.511L169.369 27.4527C169.361 27.3562 169.361 27.2593 169.369 27.1628C169.369 27.0005 169.438 26.9078 169.552 26.8846C169.877 26.8382 170.195 26.7525 170.499 26.6295C170.593 26.5872 170.671 26.5167 170.724 26.4276C170.778 26.3384 170.802 26.235 170.796 26.131V17.3086C170.803 17.2104 170.782 17.1121 170.736 17.0257C170.689 16.9393 170.619 16.8685 170.533 16.8217C170.217 16.696 169.888 16.6066 169.552 16.5551C169.438 16.5551 169.369 16.4276 169.369 16.2537C169.369 16.0798 169.369 16.1493 169.369 16.103C169.369 16.0566 169.369 16.0218 169.369 15.9754L170.636 16.045H171.549H174.973C175.498 16.045 175.955 16.045 176.343 16.045H177.107C177.267 16.045 177.358 16.1377 177.415 16.3348C177.48 16.5585 177.526 16.7873 177.552 17.0188C177.552 17.2855 177.621 17.5753 177.666 17.8767C177.752 18.1218 177.879 18.3494 178.043 18.5491C177.955 18.6176 177.846 18.6543 177.735 18.6534C177.675 18.6619 177.614 18.6507 177.56 18.6216C177.507 18.5924 177.464 18.5467 177.438 18.4911C177.316 18.2244 177.179 17.9651 177.027 17.7144C176.913 17.5097 176.762 17.3288 176.582 17.1811C176.405 17.034 176.199 16.9272 175.977 16.8681C175.687 16.7922 175.387 16.7571 175.087 16.7638L172.496 16.7869Z" fill="white"/>
<path d="M192.718 18.8156H192.456C192.338 18.8233 192.222 18.7906 192.125 18.7229C192.062 18.6697 192.009 18.6071 191.965 18.5374C191.738 17.9609 191.364 17.4566 190.881 17.0767C190.371 16.747 189.772 16.5888 189.169 16.6245C188.902 16.6216 188.636 16.6607 188.381 16.7405C188.143 16.8059 187.918 16.916 187.719 17.0651C187.536 17.2135 187.384 17.3991 187.274 17.61C187.159 17.8228 187.1 18.0625 187.103 18.3055C187.102 18.5704 187.165 18.8314 187.287 19.0658C187.408 19.3002 187.584 19.5009 187.799 19.6504C188.432 20.0932 189.119 20.4517 189.842 20.7169C190.756 21.0329 191.596 21.5382 192.307 22.2009C192.569 22.4616 192.775 22.7742 192.912 23.1193C193.05 23.4643 193.116 23.8344 193.106 24.2065C193.111 24.6604 193.038 25.1116 192.889 25.5397C192.744 25.9503 192.51 26.3227 192.205 26.6294C191.878 26.9473 191.489 27.1922 191.063 27.3482C190.494 27.5429 189.895 27.6332 189.294 27.6149C188.633 27.6255 187.973 27.5475 187.331 27.383C186.808 27.2584 186.305 27.0594 185.836 26.7917C185.836 26.3048 185.745 25.8295 185.676 25.3774C185.608 24.9252 185.528 24.4615 185.437 24.0094C185.535 23.99 185.636 23.99 185.734 24.0094C185.848 23.9972 185.962 24.0305 186.053 24.1021C186.147 24.1821 186.218 24.2862 186.258 24.4036C186.464 25.1166 186.859 25.7583 187.4 26.2585C187.819 26.5549 188.299 26.7489 188.804 26.8253C189.309 26.9017 189.824 26.8585 190.31 26.699C190.57 26.6039 190.808 26.4537 191.006 26.2585C191.187 26.0809 191.331 25.868 191.429 25.6324C191.521 25.3924 191.567 25.1366 191.565 24.8789C191.577 24.6074 191.528 24.3368 191.421 24.0877C191.314 23.8386 191.153 23.6175 190.949 23.4413C190.412 23.0285 189.81 22.711 189.169 22.5023C188.704 22.3341 188.251 22.1367 187.811 21.911C187.428 21.7303 187.074 21.4919 186.761 21.2038C186.472 20.9436 186.243 20.6233 186.087 20.2648C185.918 19.8662 185.836 19.435 185.848 19.0011C185.853 18.6026 185.934 18.2089 186.087 17.8418C186.239 17.4677 186.469 17.1315 186.761 16.8564C187.075 16.5623 187.444 16.3338 187.845 16.184C188.298 16.0149 188.778 15.9324 189.26 15.9405C189.789 15.9405 190.317 15.9949 190.835 16.1028C191.411 16.2303 191.976 16.4048 192.524 16.6245C192.524 16.9723 192.581 17.3549 192.627 17.7839C192.659 18.173 192.713 18.56 192.787 18.9432" fill="white"/>
<path d="M207.625 18.8157H207.363C207.245 18.8252 207.128 18.7924 207.032 18.7229C206.966 18.6729 206.912 18.6098 206.872 18.5374C206.642 17.9629 206.268 17.4593 205.788 17.0767C205.276 16.7506 204.678 16.5927 204.076 16.6245C203.805 16.6207 203.535 16.6599 203.277 16.7405C203.042 16.8059 202.821 16.9161 202.626 17.0651C202.436 17.2097 202.28 17.3959 202.17 17.61C202.064 17.8259 202.009 18.0642 202.01 18.3056C202.007 18.5695 202.068 18.8302 202.187 19.0647C202.307 19.2992 202.481 19.5003 202.695 19.6504C203.329 20.0909 204.016 20.4492 204.738 20.7169C205.654 21.036 206.496 21.5408 207.214 22.2009C207.472 22.4638 207.675 22.7771 207.81 23.1218C207.945 23.4665 208.011 23.8355 208.002 24.2065C208.007 24.6604 207.933 25.1116 207.785 25.5397C207.648 25.9518 207.417 26.3252 207.111 26.6294C206.768 26.9544 206.359 27.1996 205.913 27.3482C205.343 27.542 204.745 27.6322 204.144 27.6149C203.479 27.6261 202.815 27.5481 202.17 27.383C201.647 27.2568 201.144 27.0579 200.675 26.7918C200.675 26.3048 200.595 25.8295 200.526 25.3774C200.458 24.9253 200.366 24.4615 200.275 24.0094C200.373 23.99 200.474 23.99 200.572 24.0094C200.69 23.9977 200.808 24.0308 200.903 24.1021C200.989 24.1863 201.056 24.2894 201.097 24.4036C201.311 25.1126 201.705 25.7521 202.238 26.2585C202.787 26.6923 203.473 26.9068 204.167 26.8613C204.501 26.867 204.833 26.812 205.148 26.699C205.41 26.6066 205.648 26.4561 205.845 26.2585C206.029 26.0842 206.174 25.8703 206.267 25.6324C206.363 25.3931 206.414 25.1374 206.415 24.8789C206.426 24.6065 206.374 24.3353 206.266 24.0861C206.157 23.8369 205.993 23.6164 205.788 23.4413C205.255 23.0283 204.657 22.7108 204.019 22.5023C203.551 22.3319 203.094 22.1345 202.649 21.911C202.268 21.7275 201.914 21.4893 201.599 21.2038C201.314 20.9404 201.085 20.6209 200.926 20.2648C200.756 19.8662 200.675 19.435 200.686 19.0011C200.691 18.6026 200.773 18.2089 200.926 17.8418C201.081 17.467 201.315 17.1308 201.61 16.8564C201.919 16.5598 202.284 16.3309 202.683 16.184C203.136 16.016 203.616 15.9335 204.098 15.9405C204.628 15.9405 205.155 15.9949 205.673 16.1029C206.253 16.2301 206.822 16.4046 207.374 16.6245C207.374 16.9723 207.431 17.3549 207.465 17.7839C207.5 18.2128 207.568 18.5606 207.636 18.9432" fill="white"/>
</g>
<defs>
<clipPath id="clip0_538_10245">
<rect width="208" height="42.9527" fill="white"/>
</clipPath>
</defs>
</svg>
